<mxfile host="app.diagrams.net" modified="2024-01-01T00:00:00.000Z" agent="5.0" etag="xxx" version="22.1.16" type="device">
  <diagram name="Network Topology" id="network-topology">
    <mxGraphModel dx="1422" dy="794" grid="1" gridSize="10" guides="1" tooltips="1" connect="1" arrows="1" fold="1" page="1" pageScale="1" pageWidth="1169" pageHeight="827" math="0" shadow="0">
      <root>
        <mxCell id="0" />
        <mxCell id="1" parent="0" />
        
        <!-- AWS VPC -->
        <mxCell id="aws-vpc" value="AWS VPC (10.0.0.0/16)" style="rounded=0;whiteSpace=wrap;html=1;fillColor=#dae8fc;strokeColor=#6c8ebf;verticalAlign=top;fontSize=16;fontStyle=1;" vertex="1" parent="1">
          <mxGeometry x="40" y="80" width="520" height="600" as="geometry" />
        </mxCell>
        
        <!-- Public Subnets -->
        <mxCell id="public-zone" value="Public Subnets (DMZ Zone)" style="rounded=0;whiteSpace=wrap;html=1;fillColor=#f8cecc;strokeColor=#b85450;verticalAlign=top;" vertex="1" parent="1">
          <mxGeometry x="60" y="120" width="480" height="100" as="geometry" />
        </mxCell>
        
        <mxCell id="public-1a" value="10.0.1.0/24&#xa;us-east-1a&#xa;ALB, NAT" style="rounded=1;whiteSpace=wrap;html=1;fillColor=#ffe6cc;strokeColor=#d79b00;" vertex="1" parent="1">
          <mxGeometry x="80" y="150" width="120" height="60" as="geometry" />
        </mxCell>
        
        <mxCell id="public-1b" value="10.0.2.0/24&#xa;us-east-1b&#xa;ALB, NAT" style="rounded=1;whiteSpace=wrap;html=1;fillColor=#ffe6cc;strokeColor=#d79b00;" vertex="1" parent="1">
          <mxGeometry x="220" y="150" width="120" height="60" as="geometry" />
        </mxCell>
        
        <mxCell id="public-1c" value="10.0.3.0/24&#xa;us-east-1c&#xa;ALB, NAT" style="rounded=1;whiteSpace=wrap;html=1;fillColor=#ffe6cc;strokeColor=#d79b00;" vertex="1" parent="1">
          <mxGeometry x="360" y="150" width="120" height="60" as="geometry" />
        </mxCell>
        
        <!-- Private Subnets -->
        <mxCell id="private-zone" value="Private Subnets (Application Zone)" style="rounded=0;whiteSpace=wrap;html=1;fillColor=#d5e8d4;strokeColor=#82b366;verticalAlign=top;" vertex="1" parent="1">
          <mxGeometry x="60" y="240" width="480" height="100" as="geometry" />
        </mxCell>
        
        <mxCell id="private-1a" value="10.0.10.0/24&#xa;us-east-1a&#xa;EKS Nodes" style="rounded=1;whiteSpace=wrap;html=1;fillColor=#e1d5e7;strokeColor=#9673a6;" vertex="1" parent="1">
          <mxGeometry x="80" y="270" width="120" height="60" as="geometry" />
        </mxCell>
        
        <mxCell id="private-1b" value="10.0.11.0/24&#xa;us-east-1b&#xa;EKS Nodes" style="rounded=1;whiteSpace=wrap;html=1;fillColor=#e1d5e7;strokeColor=#9673a6;" vertex="1" parent="1">
          <mxGeometry x="220" y="270" width="120" height="60" as="geometry" />
        </mxCell>
        
        <mxCell id="private-1c" value="10.0.12.0/24&#xa;us-east-1c&#xa;EKS Nodes" style="rounded=1;whiteSpace=wrap;html=1;fillColor=#e1d5e7;strokeColor=#9673a6;" vertex="1" parent="1">
          <mxGeometry x="360" y="270" width="120" height="60" as="geometry" />
        </mxCell>
        
        <!-- Database Subnets -->
        <mxCell id="db-zone" value="Database Subnets (Data Zone)" style="rounded=0;whiteSpace=wrap;html=1;fillColor=#fff2cc;strokeColor=#d6b656;verticalAlign=top;" vertex="1" parent="1">
          <mxGeometry x="60" y="360" width="480" height="100" as="geometry" />
        </mxCell>
        
        <mxCell id="db-1a" value="10.0.20.0/24&#xa;us-east-1a&#xa;RDS, Cache" style="rounded=1;whiteSpace=wrap;html=1;fillColor=#f0f0f0;strokeColor=#666666;" vertex="1" parent="1">
          <mxGeometry x="80" y="390" width="120" height="60" as="geometry" />
        </mxCell>
        
        <mxCell id="db-1b" value="10.0.21.0/24&#xa;us-east-1b&#xa;RDS, Cache" style="rounded=1;whiteSpace=wrap;html=1;fillColor=#f0f0f0;strokeColor=#666666;" vertex="1" parent="1">
          <mxGeometry x="220" y="390" width="120" height="60" as="geometry" />
        </mxCell>
        
        <mxCell id="db-1c" value="10.0.22.0/24&#xa;us-east-1c&#xa;RDS, Cache" style="rounded=1;whiteSpace=wrap;html=1;fillColor=#f0f0f0;strokeColor=#666666;" vertex="1" parent="1">
          <mxGeometry x="360" y="390" width="120" height="60" as="geometry" />
        </mxCell>
        
        <!-- Management Subnets -->
        <mxCell id="mgmt-zone" value="Management Subnets (Admin Zone)" style="rounded=0;whiteSpace=wrap;html=1;fillColor=#e1d5e7;strokeColor=#9673a6;verticalAlign=top;" vertex="1" parent="1">
          <mxGeometry x="60" y="480" width="480" height="100" as="geometry" />
        </mxCell>
        
        <mxCell id="mgmt-1a" value="10.0.30.0/24&#xa;us-east-1a&#xa;Bastion, Monitor" style="rounded=1;whiteSpace=wrap;html=1;fillColor=#f8cecc;strokeColor=#b85450;" vertex="1" parent="1">
          <mxGeometry x="80" y="510" width="120" height="60" as="geometry" />
        </mxCell>
        
        <mxCell id="mgmt-1b" value="10.0.31.0/24&#xa;us-east-1b&#xa;Bastion, Monitor" style="rounded=1;whiteSpace=wrap;html=1;fillColor=#f8cecc;strokeColor=#b85450;" vertex="1" parent="1">
          <mxGeometry x="220" y="510" width="120" height="60" as="geometry" />
        </mxCell>
        
        <!-- Azure VNet -->
        <mxCell id="azure-vnet" value="Azure VNet (10.1.0.0/16)" style="rounded=0;whiteSpace=wrap;html=1;fillColor=#f8cecc;strokeColor=#b85450;verticalAlign=top;fontSize=16;fontStyle=1;" vertex="1" parent="1">
          <mxGeometry x="600" y="80" width="480" height="600" as="geometry" />
        </mxCell>
        
        <!-- Azure Public Subnets -->
        <mxCell id="azure-public" value="Public Subnets" style="rounded=0;whiteSpace=wrap;html=1;fillColor=#f8cecc;strokeColor=#b85450;verticalAlign=top;" vertex="1" parent="1">
          <mxGeometry x="620" y="120" width="440" height="100" as="geometry" />
        </mxCell>
        
        <mxCell id="azure-pub-1" value="10.1.1.0/24&#xa;App Gateway&#xa;Load Balancer" style="rounded=1;whiteSpace=wrap;html=1;fillColor=#ffe6cc;strokeColor=#d79b00;" vertex="1" parent="1">
          <mxGeometry x="640" y="150" width="180" height="60" as="geometry" />
        </mxCell>
        
        <mxCell id="azure-pub-2" value="10.1.2.0/24&#xa;App Gateway&#xa;Load Balancer" style="rounded=1;whiteSpace=wrap;html=1;fillColor=#ffe6cc;strokeColor=#d79b00;" vertex="1" parent="1">
          <mxGeometry x="840" y="150" width="180" height="60" as="geometry" />
        </mxCell>
        
        <!-- Azure Private Subnets -->
        <mxCell id="azure-private" value="Private Subnets" style="rounded=0;whiteSpace=wrap;html=1;fillColor=#d5e8d4;strokeColor=#82b366;verticalAlign=top;" vertex="1" parent="1">
          <mxGeometry x="620" y="240" width="440" height="100" as="geometry" />
        </mxCell>
        
        <mxCell id="azure-priv-1" value="10.1.10.0/24&#xa;AKS Worker Nodes" style="rounded=1;whiteSpace=wrap;html=1;fillColor=#e1d5e7;strokeColor=#9673a6;" vertex="1" parent="1">
          <mxGeometry x="640" y="270" width="180" height="60" as="geometry" />
        </mxCell>
        
        <mxCell id="azure-priv-2" value="10.1.11.0/24&#xa;AKS Worker Nodes" style="rounded=1;whiteSpace=wrap;html=1;fillColor=#e1d5e7;strokeColor=#9673a6;" vertex="1" parent="1">
          <mxGeometry x="840" y="270" width="180" height="60" as="geometry" />
        </mxCell>
        
        <!-- Azure Database Subnets -->
        <mxCell id="azure-db" value="Database Subnets" style="rounded=0;whiteSpace=wrap;html=1;fillColor=#fff2cc;strokeColor=#d6b656;verticalAlign=top;" vertex="1" parent="1">
          <mxGeometry x="620" y="360" width="440" height="100" as="geometry" />
        </mxCell>
        
        <mxCell id="azure-db-1" value="10.1.20.0/24&#xa;Azure Database&#xa;Azure Cache" style="rounded=1;whiteSpace=wrap;html=1;fillColor=#f0f0f0;strokeColor=#666666;" vertex="1" parent="1">
          <mxGeometry x="640" y="390" width="180" height="60" as="geometry" />
        </mxCell>
        
        <mxCell id="azure-db-2" value="10.1.21.0/24&#xa;Azure Database&#xa;Azure Cache" style="rounded=1;whiteSpace=wrap;html=1;fillColor=#f0f0f0;strokeColor=#666666;" vertex="1" parent="1">
          <mxGeometry x="840" y="390" width="180" height="60" as="geometry" />
        </mxCell>
        
        <!-- VPN Gateway -->
        <mxCell id="vpn-aws" value="AWS VPN&#xa;Gateway" style="rounded=1;whiteSpace=wrap;html=1;fillColor=#fff2cc;strokeColor=#d6b656;" vertex="1" parent="1">
          <mxGeometry x="460" y="600" width="80" height="60" as="geometry" />
        </mxCell>
        
        <mxCell id="vpn-azure" value="Azure VPN&#xa;Gateway" style="rounded=1;whiteSpace=wrap;html=1;fillColor=#fff2cc;strokeColor=#d6b656;" vertex="1" parent="1">
          <mxGeometry x="620" y="600" width="80" height="60" as="geometry" />
        </mxCell>
        
        <!-- VPN Connection -->
        <mxCell id="vpn-connection" value="Site-to-Site VPN&#xa;IPSec Tunnel&#xa;10 Gbps" style="shape=doubleArrow;whiteSpace=wrap;html=1;fillColor=#fff2cc;strokeColor=#d6b656;" vertex="1" parent="1">
          <mxGeometry x="540" y="610" width="80" height="40" as="geometry" />
        </mxCell>
        
        <!-- Internet Gateway -->
        <mxCell id="igw-aws" value="Internet&#xa;Gateway" style="ellipse;whiteSpace=wrap;html=1;fillColor=#e1d5e7;strokeColor=#9673a6;" vertex="1" parent="1">
          <mxGeometry x="250" y="20" width="100" height="50" as="geometry" />
        </mxCell>
        
        <mxCell id="igw-azure" value="Internet&#xa;Gateway" style="ellipse;whiteSpace=wrap;html=1;fillColor=#e1d5e7;strokeColor=#9673a6;" vertex="1" parent="1">
          <mxGeometry x="790" y="20" width="100" height="50" as="geometry" />
        </mxCell>
        
      </root>
    </mxGraphModel>
  </diagram>
</mxfile>